<svg width="454" height="501" viewBox="0 0 454 501" fill="none" xmlns="http://www.w3.org/2000/svg">
<path d="M91.5 500H453C453 500 453.62 473.22 449 457L448.982 456.938C446.877 449.547 445.661 445.278 442 438.5C439.194 433.306 435.216 427.146 430 420.5C417.093 404.056 389.5 385.5 389.5 385.5C389.5 385.5 358.374 370.32 349 354.5C340.357 339.913 338 312.5 338 312.5L367.5 335C367.5 335 363.261 321.457 362 312.5C359.547 295.071 365.506 285.072 364.5 267.5C363.63 252.308 358.5 229 358.5 229L345.5 200.5C345.5 200.5 350 199.5 353.5 200.5C357 201.5 362 201 362 201C362 201 357.159 172.162 349 156C339.063 136.315 329.356 127.289 313 112.5C296.61 97.6812 285.984 90.4266 266 81C249.637 73.2815 240.035 67.9332 222 66.5C215.966 66.0205 206.5 66.5 206.5 66.5C206.5 66.5 196.493 49.9646 187 42.5C176.418 34.179 155.5 28.5 155.5 28.5C155.5 28.5 162.138 51.9313 159 66.5C156.938 76.0748 149 89.5 149 89.5L1 1L114.5 117C114.5 117 103.275 134.828 96.5 146.5C90.2258 157.309 86.6377 165.607 79 175.5C70.9804 185.888 65.921 188.364 56.5 197.5C47.5793 206.151 41.1506 208 37.5 216C33.8494 224 30.4788 239.463 33 249.5C35.2337 258.393 37.6042 262.957 44.5 269C51.8851 275.472 58.6816 275.154 68.5 275C80.3951 274.813 86.1277 268.826 96.5 263C109.268 255.828 111.775 247.609 125.5 242.5C132.427 239.921 141.163 239.394 148.5 238.5C158.191 237.319 162.04 236.913 171.5 234.5C182.014 231.818 194 222.5 194 222.5C194 222.5 191.261 240.505 188.5 251C184.763 265.208 181.506 271.371 174 284C166.116 297.264 157.997 302.838 148.5 315C136.674 330.145 130.695 338.213 120.5 354.5C109.101 372.71 103.171 383.579 96.5 404C91.232 420.127 88.6831 429.576 87.5 446.5C86.0353 467.452 91.5 500 91.5 500Z" fill="#155DFC"/>
<path d="M449 457C453.62 473.22 453 500 453 500H91.5C91.5 500 86.0353 467.452 87.5 446.5C88.6831 429.576 91.232 420.127 96.5 404C103.171 383.579 109.101 372.71 120.5 354.5C130.695 338.213 136.674 330.145 148.5 315C157.997 302.838 166.116 297.264 174 284C181.506 271.371 184.763 265.208 188.5 251C191.261 240.505 194 222.5 194 222.5C194 222.5 182.014 231.818 171.5 234.5C162.04 236.913 158.191 237.319 148.5 238.5C141.163 239.394 132.427 239.921 125.5 242.5C111.775 247.609 109.268 255.828 96.5 263C86.1277 268.826 80.3951 274.813 68.5 275C58.6816 275.154 51.8851 275.472 44.5 269C37.6042 262.957 35.2337 258.393 33 249.5C30.4788 239.463 33.8494 224 37.5 216C41.1506 208 47.5793 206.151 56.5 197.5C65.921 188.364 70.9804 185.888 79 175.5C86.6377 165.607 90.2258 157.309 96.5 146.5C103.275 134.828 114.5 117 114.5 117L1 1L149 89.5C149 89.5 156.938 76.0748 159 66.5C162.138 51.9313 155.5 28.5 155.5 28.5C155.5 28.5 176.418 34.179 187 42.5C196.493 49.9646 206.5 66.5 206.5 66.5C206.5 66.5 215.966 66.0205 222 66.5C240.035 67.9332 249.637 73.2815 266 81C285.984 90.4266 296.61 97.6812 313 112.5C329.356 127.289 339.063 136.315 349 156C357.159 172.162 362 201 362 201C362 201 357 201.5 353.5 200.5C350 199.5 345.5 200.5 345.5 200.5L358.5 229C358.5 229 363.63 252.308 364.5 267.5C365.506 285.072 359.547 295.071 362 312.5C363.261 321.457 367.5 335 367.5 335L338 312.5C338 312.5 340.357 339.913 349 354.5C358.374 370.32 389.5 385.5 389.5 385.5C389.5 385.5 417.093 404.056 430 420.5C435.216 427.146 439.194 433.306 442 438.5C445.661 445.278 446.877 449.547 448.982 456.938M449 457L448.982 456.938M449 457C448.994 456.979 448.988 456.959 448.982 456.938" stroke="#155DFC"/>
</svg>
