<svg width="128" height="128" viewBox="0 0 128 128" fill="none" xmlns="http://www.w3.org/2000/svg">
<circle cx="64" cy="64" r="64" fill="#155DFC"/>
<g clip-path="url(#clip0_32_5)">
<path d="M82.0455 28.1818H101L93.5682 72.9091C92.7045 78.2273 90.6818 82.8295 87.5 86.7159C84.3409 90.5795 80.3182 93.5682 75.4318 95.6818C70.5455 97.7727 65.1136 98.8182 59.1364 98.8182C53.1136 98.8182 48.0227 97.7727 43.8636 95.6818C39.7045 93.5682 36.6818 90.5795 34.7955 86.7159C32.9318 82.8295 32.4318 78.2273 33.2955 72.9091L40.7273 28.1818H59.6818L52.5227 71.2727C52.1818 73.4318 52.3523 75.3523 53.0341 77.0341C53.7159 78.7159 54.8182 80.0455 56.3409 81.0227C57.8636 81.9773 59.7045 82.4545 61.8636 82.4545C64.0455 82.4545 66.0568 81.9773 67.8977 81.0227C69.7614 80.0455 71.3068 78.7159 72.5341 77.0341C73.7614 75.3523 74.5455 73.4318 74.8864 71.2727L82.0455 28.1818Z" fill="white"/>
<rect x="78.598" y="37.9155" width="22.4148" height="8.99013" transform="rotate(4 78.598 37.9155)" fill="#155DFC"/>
</g>
<defs>
<clipPath id="clip0_32_5">
<rect width="69" height="72" fill="white" transform="translate(32 28)"/>
</clipPath>
</defs>
</svg>
