<svg width="1236" height="447" viewBox="0 0 1236 447" fill="none" xmlns="http://www.w3.org/2000/svg">
<path d="M55.296 107.072C55.296 112.867 56.2853 117.884 58.264 122.124C60.384 126.223 63.564 129.403 67.804 131.664C72.044 133.925 77.4853 135.056 84.128 135.056C90.912 135.056 96.424 133.996 100.664 131.876C104.904 129.615 108.013 126.364 109.992 122.124C111.971 117.884 112.96 112.867 112.96 107.072V21H167.656V110.04C167.656 124.88 164.193 137.812 157.268 148.836C150.343 159.86 140.591 168.481 128.012 174.7C115.575 180.777 100.947 183.816 84.128 183.816C67.4507 183.816 52.8227 180.777 40.244 174.7C27.8067 168.481 18.0547 159.86 10.988 148.836C4.06267 137.812 0.6 124.88 0.6 110.04V21H55.296V107.072ZM181.194 58.1H235.042L243.522 110.04V180H189.674V101.772L181.194 58.1ZM285.71 54.284C297.582 54.284 307.688 56.6867 316.026 61.492C324.365 66.156 330.725 72.7987 335.106 81.42C339.629 89.9 341.89 99.864 341.89 111.312V180H288.042V118.944C288.042 112.16 286.134 106.931 282.318 103.256C278.644 99.5813 273.414 97.744 266.63 97.744C261.825 97.744 257.656 98.7333 254.122 100.712C250.73 102.549 248.116 105.305 246.278 108.98C244.441 112.513 243.522 116.824 243.522 121.912L227.622 113.856C229.601 100.571 233.417 89.5467 239.07 80.784C244.724 71.88 251.578 65.2373 259.634 60.856C267.69 56.4747 276.382 54.284 285.71 54.284ZM360.824 55.556L387.748 61.068L414.672 55.556V180H360.824V55.556ZM387.748 49.196C378.703 49.196 371.424 47.0053 365.912 42.624C360.4 38.2427 357.644 32.236 357.644 24.604C357.644 16.972 360.4 10.9653 365.912 6.584C371.424 2.20266 378.703 0.0119922 387.748 0.0119922C396.935 0.0119922 404.214 2.20266 409.584 6.584C415.096 10.9653 417.852 16.972 417.852 24.604C417.852 32.236 415.096 38.2427 409.584 42.624C404.214 47.0053 396.935 49.196 387.748 49.196Z" fill="#155DFC"/>
<path d="M95.364 284C109.78 284 122.076 286.403 132.252 291.208C142.569 295.872 150.413 302.585 155.784 311.348C161.155 319.969 163.84 330.145 163.84 341.876C163.84 353.607 161.155 363.853 155.784 372.616C150.413 381.237 142.569 387.951 132.252 392.756C122.076 397.42 109.78 399.752 95.364 399.752H28.16V357.14H91.76C97.1307 357.14 101.3 355.797 104.268 353.112C107.236 350.427 108.72 346.681 108.72 341.876C108.72 336.929 107.236 333.184 104.268 330.64C101.3 327.955 97.1307 326.612 91.76 326.612H32.824L57.416 302.02V443H2.72V284H95.364ZM177.602 279.76H231.45V443H177.602V279.76ZM359.203 443L353.055 399.964L359.203 382.156L353.055 364.56L359.203 321.1H415.171L406.691 381.944L415.171 443H359.203ZM370.439 382.156C369.026 395.159 365.492 406.536 359.839 416.288C354.327 425.899 347.048 433.389 338.003 438.76C329.099 444.131 318.852 446.816 307.263 446.816C295.391 446.816 284.932 444.131 275.887 438.76C266.983 433.389 259.987 425.828 254.899 416.076C249.952 406.324 247.479 395.017 247.479 382.156C247.479 369.153 249.952 357.776 254.899 348.024C259.987 338.272 266.983 330.711 275.887 325.34C284.932 319.969 295.391 317.284 307.263 317.284C318.852 317.284 329.099 319.969 338.003 325.34C347.048 330.569 354.398 338.06 360.051 347.812C365.704 357.423 369.167 368.871 370.439 382.156ZM301.751 382.156C301.751 386.82 302.67 390.989 304.507 394.664C306.486 398.197 309.171 401.024 312.563 403.144C316.096 405.264 320.124 406.324 324.647 406.324C329.311 406.324 333.834 405.264 338.215 403.144C342.596 401.024 346.412 398.197 349.663 394.664C353.055 390.989 355.387 386.82 356.659 382.156C355.387 377.492 353.055 373.323 349.663 369.648C346.412 365.973 342.596 363.076 338.215 360.956C333.834 358.836 329.311 357.776 324.647 357.776C320.124 357.776 316.096 358.836 312.563 360.956C309.171 363.076 306.486 365.973 304.507 369.648C302.67 373.323 301.751 377.492 301.751 382.156ZM423.346 360.32V337.212L447.302 325.128L470.834 287.816H501.15V321.1H548.85V360.32H501.15V385.336C501.15 393.109 502.634 398.621 505.602 401.872C508.57 404.981 514.648 406.536 523.834 406.536C529.488 406.536 534.505 406.183 538.886 405.476C543.409 404.628 547.437 403.639 550.97 402.508V441.516C546.165 442.929 540.229 444.131 533.162 445.12C526.237 446.251 518.958 446.816 511.326 446.816C496.91 446.816 484.968 444.696 475.498 440.456C466.029 436.075 458.962 429.785 454.298 421.588C449.634 413.391 447.302 403.639 447.302 392.332V360.32H423.346ZM661.585 315.376C652.681 315.376 646.815 316.719 643.989 319.404C641.162 322.089 639.749 326.188 639.749 331.7V443H585.901V333.82C585.901 320.959 588.586 310.288 593.957 301.808C599.327 293.187 607.171 286.756 617.489 282.516C627.806 278.135 640.314 275.944 655.013 275.944C661.231 275.944 666.885 276.368 671.973 277.216C677.061 277.923 682.643 279.053 688.721 280.608V319.192C684.339 318.061 679.887 317.143 675.365 316.436C670.983 315.729 666.39 315.376 661.585 315.376ZM561.945 371.556V332.336H685.329V371.556H561.945ZM772.313 446.816C756.201 446.816 742.068 444.131 729.913 438.76C717.9 433.389 708.501 425.828 701.717 416.076C695.074 406.324 691.753 395.017 691.753 382.156C691.753 369.153 695.074 357.776 701.717 348.024C708.501 338.272 717.9 330.711 729.913 325.34C742.068 319.969 756.201 317.284 772.313 317.284C788.425 317.284 802.488 319.969 814.501 325.34C826.656 330.711 836.054 338.272 842.697 348.024C849.481 357.776 852.873 369.153 852.873 382.156C852.873 395.017 849.481 406.324 842.697 416.076C836.054 425.828 826.656 433.389 814.501 438.76C802.488 444.131 788.425 446.816 772.313 446.816ZM772.313 407.596C777.966 407.596 782.701 406.607 786.517 404.628C790.474 402.649 793.442 399.752 795.421 395.936C797.541 392.12 798.601 387.527 798.601 382.156C798.601 376.644 797.541 371.98 795.421 368.164C793.442 364.348 790.474 361.451 786.517 359.472C782.701 357.493 777.966 356.504 772.313 356.504C766.801 356.504 762.066 357.493 758.109 359.472C754.152 361.451 751.113 364.348 748.993 368.164C747.014 371.98 746.025 376.644 746.025 382.156C746.025 387.527 747.014 392.12 748.993 395.936C751.113 399.752 754.152 402.649 758.109 404.628C762.066 406.607 766.801 407.596 772.313 407.596ZM861.292 321.1H916.412L923.62 364.136V443H869.772V363.5L861.292 321.1ZM977.468 318.556V364.136C972.663 363.288 968.352 362.723 964.536 362.44C960.72 362.016 957.328 361.804 954.36 361.804C948.989 361.804 943.972 362.793 939.308 364.772C934.644 366.609 930.828 370.001 927.86 374.948C925.033 379.895 923.62 386.961 923.62 396.148L914.08 384.276C915.493 375.513 917.26 367.175 919.38 359.26C921.641 351.204 924.609 344.067 928.284 337.848C931.959 331.488 936.623 326.471 942.276 322.796C947.929 319.121 954.996 317.284 963.476 317.284C965.596 317.284 967.787 317.425 970.048 317.708C972.309 317.849 974.783 318.132 977.468 318.556ZM985.304 321.1H1039.15L1047.63 373.04V443H993.784V364.772L985.304 321.1ZM1087.7 317.284C1099.15 317.284 1108.9 319.687 1116.96 324.492C1125.01 329.156 1131.16 335.799 1135.4 344.42C1139.64 352.9 1141.76 362.864 1141.76 374.312V443H1087.91V381.944C1087.91 375.16 1086.22 369.931 1082.82 366.256C1079.57 362.581 1074.84 360.744 1068.62 360.744C1064.24 360.744 1060.42 361.733 1057.17 363.712C1054.06 365.549 1051.66 368.305 1049.96 371.98C1048.41 375.513 1047.63 379.824 1047.63 384.912L1031.73 376.856C1033.71 363.571 1037.38 352.547 1042.76 343.784C1048.27 334.88 1054.91 328.237 1062.68 323.856C1070.46 319.475 1078.8 317.284 1087.7 317.284ZM1181.62 317.284C1193.06 317.284 1202.82 319.687 1210.87 324.492C1219.07 329.156 1225.29 335.799 1229.53 344.42C1233.77 352.9 1235.89 362.864 1235.89 374.312V443H1182.04V381.944C1182.04 375.16 1180.34 369.931 1176.95 366.256C1173.7 362.581 1168.97 360.744 1162.75 360.744C1158.37 360.744 1154.55 361.733 1151.3 363.712C1148.19 365.549 1145.79 368.305 1144.09 371.98C1142.54 375.513 1141.76 379.824 1141.76 384.912L1125.86 376.856C1127.84 363.571 1131.51 352.547 1136.88 343.784C1142.25 334.88 1148.83 328.237 1156.6 323.856C1164.37 319.475 1172.71 317.284 1181.62 317.284Z" fill="#0F1011"/>
</svg>
